<svg xmlns:xlink="http://www.w3.org/1999/xlink" xmlns="http://www.w3.org/2000/svg" loading="lazy" alt="Logo Toro Investimentos" width="115" height="22" viewBox="0 0 115 22" fill="none"><path fill-rule="evenodd" clip-rule="evenodd" d="M29.3469 8.16812H36.0762V17.7861H36.1251C38.7823 17.7861 40.9366 15.6944 40.9366 13.114V8.16812H47.8529V4.1748H29.3469V8.16812Z" fill="#1F073B"></path><path fill-rule="evenodd" clip-rule="evenodd" d="M61.5651 13.7953H56.94C55.3268 13.7953 53.9329 12.5944 53.8576 11.0296C53.7775 9.36561 55.1485 7.98675 56.8453 7.98675H61.4702C63.0834 7.98675 64.4775 9.18792 64.5526 10.7525C64.6327 12.4169 63.2615 13.7953 61.5651 13.7953ZM62.707 3.99365H55.7013C51.7943 3.99365 48.5979 7.09748 48.5979 10.891C48.5979 14.6846 51.7943 17.7886 55.7013 17.7886H62.707C66.6137 17.7886 69.8103 14.6846 69.8103 10.891C69.8103 7.09748 66.6137 3.99365 62.707 3.99365Z" fill="#1F073B"></path><path fill-rule="evenodd" clip-rule="evenodd" d="M106.388 13.7953H101.762C100.149 13.7953 98.7552 12.5944 98.6798 11.0296C98.5998 9.36561 99.9709 7.98675 101.668 7.98675H106.293C107.906 7.98675 109.3 9.18792 109.375 10.7525C109.455 12.4169 108.084 13.7953 106.388 13.7953ZM107.532 3.99365H100.526C96.6191 3.99365 93.4227 7.09748 93.4227 10.891C93.4227 14.6846 96.6191 17.7886 100.526 17.7886H107.532C111.439 17.7886 114.635 14.6846 114.635 10.891C114.635 7.09748 111.439 3.99365 107.532 3.99365Z" fill="#1F073B"></path><path fill-rule="evenodd" clip-rule="evenodd" d="M85.6116 9.08878C85.6116 9.78037 85.0286 10.3466 84.316 10.3466H77.7597V7.80557H84.316C85.0286 7.80557 85.6116 8.37162 85.6116 9.06363V9.08878ZM90.5351 9.29565C90.5351 7.9372 89.9634 6.70284 89.0402 5.80594C88.1184 4.91109 86.847 4.35596 85.4483 4.35596H72.3406V12.027V14.3399V17.6065H77.5741V14.3399H83.1072L85.0483 17.6065H90.5351L88.1815 13.4557C89.5934 12.5751 90.5351 11.0369 90.5351 9.29565Z" fill="#1F073B"></path><path fill-rule="evenodd" clip-rule="evenodd" d="M10.6553 21.7111V16.2923C10.6553 16.234 10.5873 16.2008 10.5389 16.2356C7.77071 18.2298 4.62015 20.048 1.15561 21.6472C1.08556 21.6798 1.10933 21.782 1.18703 21.782H10.5822C10.6226 21.782 10.6553 21.7501 10.6553 21.7111Z" fill="#6131B4"></path><mask id="mask0" masktype="alpha" maskUnits="userSpaceOnUse" x="0" y="0" width="22" height="15" fill="none"><path fill-rule="evenodd" clip-rule="evenodd" d="M0 7.06501V0H21.8831V14.13H0V7.06501Z" fill="#FFFFFF"></path></mask><g mask="url(#mask0)" fill="none"><path fill-rule="evenodd" clip-rule="evenodd" d="M21.8696 0.111933C21.9038 0.0649336 21.869 0 21.81 0H7.54024C3.37601 0 0 3.25101 0 7.26123V14.0591C0 14.1077 0.0492507 14.1419 0.0965908 14.1263C9.83082 10.9429 17.5817 5.97616 21.8696 0.111933Z" fill="#6131B4"></path></g><path fill-rule="evenodd" clip-rule="evenodd" d="M14.5789 13.1279V21.7111C14.5789 21.75 14.6115 21.7818 14.6519 21.7818H14.8901C19.0541 21.7818 22.4299 18.531 22.4299 14.5208V2.00012C22.4299 1.92035 22.315 1.90138 22.2881 1.97683C20.8783 5.93345 18.2372 9.69177 14.6011 13.077C14.5869 13.0902 14.5789 13.1085 14.5789 13.1279Z" fill="#6131B4"></path></svg>