<svg xmlns:xlink="http://www.w3.org/1999/xlink" xmlns="http://www.w3.org/2000/svg" class="icon-svg" width="40"  height="40" ><defs><symbol id="icon_charts_up" viewBox="0 0 40 40">
				<path d="M3.5962089,40 L11.3733111,40 C12.2960181,40 12.9550946,39.2 12.9550946,38.4 L12.9550946,30.5333333 C12.9550946,29.6 12.1642029,28.9333333 11.3733111,28.9333333 L3.5962089,28.9333333 C2.67350186,28.9333333 2.0144254,29.7333333 2.0144254,30.5333333 L2.0144254,38.4 C1.88261011,39.3333333 2.67350186,40 3.5962089,40 Z M5.1779924,32.1333333 L9.65971231,32.1333333 L9.65971231,36.6666667 L5.1779924,36.6666667 L5.1779924,32.1333333 Z M14.5368781,20.5333333 C14.5368781,19.6 15.1959546,18.9333333 16.1186616,18.9333333 L23.8957638,18.9333333 C24.6866556,18.9333333 25.4775473,19.6 25.4775473,20.5333333 L25.4775473,38.4 C25.4775473,39.2 24.8184708,40 23.8957638,40 L16.1186616,40 C15.3277698,40 14.5368781,39.3333333 14.5368781,38.4 L14.5368781,20.5333333 Z M17.8322604,22.2666667 L17.8322604,36.8 L22.3139803,36.8 L22.3139803,22.2666667 L17.8322604,22.2666667 Z M28.6411143,8.53333333 L36.4182165,8.53333333 C37.2091083,8.53333333 38,9.2 38,10.1333333 L38,38.2666667 C38,39.0666667 37.3409235,39.8666667 36.4182165,39.8666667 L28.6411143,39.8666667 C27.8502225,39.8666667 27.0593308,39.2 27.0593308,38.2666667 L27.0593308,10.1333333 C27.0593308,9.33333333 27.7184073,8.53333333 28.6411143,8.53333333 Z M34.836433,36.6666667 L34.836433,11.8666667 L30.3547131,11.8666667 L30.3547131,36.6666667 L34.836433,36.6666667 Z M3.20076302,13.7333333 C3.46439361,14 3.99165477,14.2666667 4.38710065,14.2666667 C4.78254652,14.2666667 5.1779924,14.1333333 5.57343827,13.7333333 L13.4823558,5.73333333 L13.4823558,12.5333333 C13.4823558,13.4666667 14.2732475,14.1333333 15.0641393,14.1333333 C15.855031,14.1333333 16.6459228,13.3333333 16.6459228,12.5333333 L16.6459228,1.73333333 L16.6459228,1.73333333 C16.6459228,1.46666667 16.6459228,1.33333333 16.5141075,1.06666667 C16.3822922,0.666666667 15.9868463,0.4 15.5914004,0.133333333 C15.3277698,0 15.1959546,0 14.932324,0 L4.25528536,0 C3.33257832,0 2.67350186,0.8 2.67350186,1.6 C2.67350186,2.4 3.46439361,3.2 4.25528536,3.2 L10.9778652,3.2 L3.06894773,11.2 C2.67350186,12 2.67350186,13.0666667 3.20076302,13.7333333 Z"></path>
		</symbol></defs><use xlink:href="#icon_charts_up" fill="#DBC7FF"></use></svg>